<?xml version="1.0" encoding="utf-8"?>
<!-- Generator: Adobe Illustrator 20.0.0, SVG Export Plug-In . SVG Version: 6.00 Build 0)  -->
<svg version="1.1" id="Layer_1" xmlns="http://www.w3.org/2000/svg" xmlns:xlink="http://www.w3.org/1999/xlink" x="0px" y="0px"
	 viewBox="0 0 224.79 316.36" style="enable-background:new 0 0 224.79 316.36;" xml:space="preserve">
<path d="M223.61,237.35c-0.2-1.09-0.65-2.17-1.37-3.23l-5.04-223.26c0-1.87-2.65-4.05-3.65-4.72C208.2,2.11,158.7,0,112.33,0
	C74.39,0,16.58,1.67,10.97,6.27c-1.56,1.02-3.83,2.53-3.83,4.55L2.01,233.96c-0.79,1.11-1.29,2.24-1.5,3.39H0l0.44,27.11
	c0,7.26,7.82,14,22.64,19.52c-1.19,8.94-6.07,15.87-14.9,21.14l-0.28,0.17l-0.18,0.27c-1.15,1.77-1.19,3.94-0.11,6.44l0.22,0.52
	l0.52,0.22c5.81,2.49,10.96,3.71,15.31,3.6c6.13-0.14,19.1-3.77,22.04-10.21c1.86-4.07,3.91-9.01,6.12-14.69
	c18.03,3.25,38.94,4.97,60.57,4.97c21.63,0,42.54-1.72,60.57-4.97c2.2,5.67,4.26,10.61,6.12,14.69
	c2.94,6.44,15.91,10.07,22.04,10.21c0.17,0,0.34,0.01,0.51,0.01c4.24,0,9.22-1.21,14.8-3.61l0.52-0.22l0.22-0.52
	c1.08-2.51,1.04-4.67-0.11-6.44l-0.18-0.27l-0.28-0.17c-8.83-5.28-13.71-12.2-14.9-21.14c14.82-5.52,22.64-12.25,22.64-19.49
	l0.44-27.13H223.61z M221.64,256.37c-6.19,13.49-53.78,23.95-109.58,23.95c-54.6,0-100.52-9.77-108.9-22.69l-0.22-13.32
	c10.81,11.95,54.87,20.64,109.11,20.64c55.47,0,100.28-9.09,109.79-21.45L221.64,256.37z M112.06,263.53
	c-54.63,0-101.51-9.56-109.15-21.54l-0.02-1.05c5.81,12.13,51.56,21.29,108.91,21.29c58.56,0,105.02-9.55,109.23-22.05h0.87
	l-0.01,0.47C217.04,253.26,168.72,263.53,112.06,263.53z M11.72,9.19c2.23,1.12,8.91,2.54,29.04,3.81
	c19.03,1.2,44.33,1.87,71.24,1.87c26.91,0,52.21-0.66,71.24-1.87c21.32-1.35,27.56-2.86,29.39-4.01c0.87,0.71,1.6,1.58,1.73,1.95
	l0,0.09c-4.58,2.71-45.49,5.49-102.55,5.49c-54.82,0-94.73-2.57-101.85-5.17l0.01-0.49C10,10.63,10.36,10.15,11.72,9.19z
	 M13.03,8.27c3.75-2.32,39.58-5.44,99.3-5.44c55.29,0,93.5,2.69,99.01,5.28c-5.29,2.37-40.32,5.35-99.34,5.35
	C54.28,13.46,19.49,10.61,13.03,8.27z M38.51,16.08c19.58,1.2,45.61,1.87,73.3,1.87s53.72-0.66,73.3-1.87
	c19.2-1.18,26.51-2.49,29.29-3.57l5.14,227.67h0.01c-4.72,11.36-52.13,20.63-107.73,20.63c-55.61,0-103.02-9.27-107.73-20.64H4.7
	L9.93,12.76C13.17,13.78,20.75,14.98,38.51,16.08z M26.03,302.16c2.92,0.38,5.39,0.85,7.38,1.4c-1.66,1.72-3.56,3.28-5.68,4.61
	c-1.22,0.77-3.46,0.79-5.43,0.81l-0.31,0c-6.42,0.08-8.26-0.88-8.77-1.47C17.9,305.86,22.2,304.07,26.03,302.16z M25.3,300.94
	c-3.09,1.54-6.49,3-10.15,4.36c5.52-4.14,9.25-9.2,11.15-15.1C26.25,294.58,25.92,298.18,25.3,300.94z M17.79,301.17
	c4.5-4.69,7.2-10.29,8.09-16.74c0.07,0.02,0.14,0.05,0.21,0.07C25.29,290.96,22.51,296.54,17.79,301.17z M12.09,308.35
	c1.11,1.39,4.07,2.04,9.26,2.04c0.22,0,0.44,0,0.66,0l0.31,0c2.16-0.02,4.61-0.04,6.17-1.03c7.57-4.77,12.52-12.15,13.74-20.41
	c2.25,0.5,4.57,0.98,6.96,1.44c-2.19,5.64-4.23,10.54-6.07,14.57c-2.17,4.75-13.17,8.41-19.53,8.56c-3.83,0.1-8.38-0.97-13.58-3.15
	c-0.44-1.22-0.46-2.21-0.06-3.01c0.63-0.38,1.24-0.78,1.84-1.18c-0.11,0.18-0.21,0.38-0.24,0.61
	C11.48,307.29,11.66,307.82,12.09,308.35z M34.48,302.39c-2.05-0.62-4.64-1.14-7.71-1.56c0.81-3.86,1.1-9.16,0.87-15.8
	c4.03,1.31,8.45,2.52,13.21,3.62C40.11,293.72,37.9,298.44,34.48,302.39z M34.09,285.38c-2.85-0.79-5.53-1.62-8.03-2.48l0.08-0.82
	l-1.04-0.37c-14.07-5.07-21.83-11.19-21.83-17.26l-0.07-4.49c11.27,12.7,55.28,21.79,108.86,21.79c54.25,0,99.43-9.54,109.54-22.63
	l-0.09,5.35c0,6.04-7.75,12.16-21.83,17.24l-1.04,0.37l0.06,0.6c-0.58,0.2-1.16,0.4-1.76,0.6l-0.23,0.02l-0.03,0.07
	c-2.1,0.7-4.32,1.37-6.65,2.02c-4.68,1.29-9.72,2.45-15.03,3.47l-0.23-0.61l-1.16,0.21c-18.12,3.36-39.29,5.13-61.22,5.13
	s-43.09-1.78-61.21-5.13l-1.16-0.21l-0.28,0.73C44.2,287.91,38.95,286.72,34.09,285.38z M198.09,302.16
	c3.83,1.91,8.13,3.71,12.81,5.35c-0.52,0.59-2.35,1.55-8.77,1.47l-0.31,0c-1.97-0.02-4.21-0.04-5.43-0.81
	c-2.12-1.34-4.01-2.89-5.68-4.61C192.7,303.01,195.18,302.54,198.09,302.16z M198.82,300.94c-0.62-2.76-0.95-6.36-0.99-10.74
	c1.89,5.9,5.62,10.96,11.15,15.1C205.31,303.94,201.91,302.48,198.82,300.94z M196.49,285.02c-0.23,6.64,0.06,11.95,0.87,15.8
	c-3.08,0.42-5.67,0.95-7.71,1.56c-3.42-3.95-5.63-8.67-6.36-13.74C188.04,287.55,192.46,286.33,196.49,285.02z M181.89,288.96
	c1.22,8.25,6.17,15.63,13.74,20.41c1.56,0.98,4.01,1.01,6.18,1.03l0.31,0c0.22,0,0.44,0,0.66,0c5.2,0,8.15-0.65,9.26-2.04
	c0.43-0.54,0.61-1.06,0.53-1.57c-0.11-0.7-0.66-1.16-1.13-1.47c-7.85-5.29-12.35-12.29-13.4-20.81c0.29-0.1,0.57-0.2,0.85-0.3
	c1.26,9.68,6.61,17.47,15.94,23.15c0.4,0.8,0.38,1.79-0.06,3.01c-5.2,2.18-9.79,3.25-13.58,3.15c-6.36-0.15-17.36-3.8-19.53-8.56
	c-1.85-4.06-3.91-9.01-6.11-14.69C177.73,289.86,179.84,289.42,181.89,288.96z"/>
</svg>
