<?xml version="1.0" standalone="no"?>
<!DOCTYPE svg PUBLIC "-//W3C//DTD SVG 20010904//EN"
 "http://www.w3.org/TR/2001/REC-SVG-20010904/DTD/svg10.dtd">
<svg version="1.0" xmlns="http://www.w3.org/2000/svg"
 width="300.000000pt" height="300.000000pt" viewBox="0 0 300.000000 300.000000"
 preserveAspectRatio="xMidYMid meet">
<metadata>
Created by potrace 1.10, written by Peter Selinger 2001-2011
</metadata>
<g transform="translate(0.000000,300.000000) scale(0.100000,-0.100000)"
fill="#000000" stroke="none">
<path d="M890 2765 c-91 -7 -177 -16 -192 -20 -57 -15 -54 10 -68 -655 -7
-338 -17 -741 -22 -895 -6 -154 -9 -343 -8 -420 1 -129 3 -142 23 -164 22 -23
117 -74 124 -67 3 2 -20 20 -50 40 -49 33 -66 54 -81 99 -7 22 -10 22 60 -13
101 -50 239 -85 444 -112 151 -20 647 -17 795 5 155 23 295 60 362 96 55 30
62 27 44 -21 -8 -21 -71 -68 -71 -52 0 4 -14 -10 -30 -31 -28 -36 -38 -89 -19
-101 4 -2 6 9 4 26 -3 18 0 28 5 25 6 -4 10 4 10 17 0 18 8 27 33 36 18 6 47
24 65 39 l33 28 6 133 c4 97 3 132 -5 132 -7 0 -12 14 -11 33 1 30 1 31 9 7
l8 -25 1 27 c1 14 -3 28 -8 30 -8 3 -13 165 -32 1168 -11 575 -11 585 -32 601
-11 10 -44 20 -71 24 -198 26 -1031 32 -1326 10z m1190 -10 c111 -14 146 -18
157 -16 19 3 53 -35 41 -47 -6 -6 -6 -16 0 -28 6 -11 13 -155 16 -329 3 -171
8 -398 11 -505 3 -107 7 -332 10 -500 6 -359 13 -472 28 -463 6 4 7 -4 2 -23
-4 -16 -7 -36 -6 -44 4 -43 -1 -86 -11 -98 -32 -38 -166 -84 -328 -111 -467
-79 -1154 -22 -1349 112 -33 22 -35 27 -36 83 0 32 -4 73 -8 89 -4 17 -4 24
-1 18 14 -31 19 -6 20 95 0 59 3 267 7 462 4 195 9 470 12 610 8 388 16 644
21 652 3 4 23 8 45 8 22 0 38 4 35 8 -3 5 31 9 75 10 43 0 83 3 87 6 4 2 68 7
142 11 74 4 137 9 140 11 5 6 843 -4 890 -11z"/>
<path d="M840 2710 c0 -6 23 -10 52 -10 62 0 60 5 -4 13 -29 4 -48 3 -48 -3z"/>
<path d="M1471 1038 c-1 -9 4 -20 9 -23 6 -3 10 -1 10 6 0 10 3 10 12 1 22
-22 29 -12 19 26 -1 1 -10 -2 -20 -8 -14 -7 -21 -6 -24 3 -3 7 -6 5 -6 -5z"/>
<path d="M1450 1008 l0 -38 43 1 c24 1 32 4 19 6 -13 3 -32 19 -43 36 l-19 32
0 -37z"/>
<path d="M1453 945 c0 -11 11 -15 39 -15 38 0 51 15 22 27 -9 3 -20 0 -25 -8
-6 -10 -9 -10 -9 -1 0 6 -6 12 -13 12 -8 0 -14 -7 -14 -15z"/>
<path d="M1346 882 c-9 -15 5 -50 22 -57 10 -4 22 1 29 11 7 10 13 12 13 6 0
-7 5 -12 10 -12 6 0 9 5 8 11 -2 6 3 14 10 16 6 3 12 -2 12 -11 0 -19 16 -29
32 -20 7 5 5 12 -8 22 -16 13 -17 14 -1 9 9 -4 17 -1 17 5 0 7 -16 9 -45 6
-25 -3 -45 -2 -45 3 0 5 -4 9 -9 9 -5 0 -7 -9 -4 -20 4 -14 0 -20 -11 -20 -12
0 -15 6 -10 25 6 24 -8 36 -20 17z"/>
<path d="M1500 851 c0 -25 18 -37 33 -22 7 7 14 7 23 0 17 -14 34 -3 34 22 0
12 -7 19 -20 19 -11 0 -20 -4 -20 -9 0 -5 -9 -11 -20 -14 -11 -3 -20 -1 -20 3
0 5 8 11 18 13 13 4 11 5 -5 6 -17 1 -23 -5 -23 -18z"/>
<path d="M1601 848 c1 -17 2 -19 6 -5 6 24 21 21 26 -5 4 -20 4 -19 6 5 1 21
-4 27 -19 27 -14 0 -20 -6 -19 -22z"/>
<path d="M2105 770 c-13 -5 -14 -9 -5 -9 8 0 24 4 35 9 13 5 14 9 5 9 -8 0
-24 -4 -35 -9z"/>
<path d="M2144 706 c-17 -44 24 -75 43 -34 8 17 7 26 -3 36 -18 16 -33 15 -40
-2z"/>
<path d="M922 464 c3 -16 9 -38 13 -48 5 -12 5 -17 -1 -13 -6 3 -11 -4 -11
-15 -3 -29 -28 -53 -58 -56 -14 -1 -40 -9 -58 -19 -43 -23 -50 -23 -94 -8 -27
10 -38 19 -37 33 0 13 -5 18 -13 15 -7 -3 -13 -16 -13 -29 0 -44 109 -57 210
-26 45 14 58 24 72 52 29 58 58 123 55 126 -1 1 -17 5 -36 9 -33 7 -33 6 -29
-21z"/>
<path d="M2049 408 l38 -83 59 -17 c103 -29 214 -18 214 21 0 10 -20 32 -45
50 -25 18 -45 30 -45 27 0 -2 18 -18 41 -34 36 -27 39 -31 22 -40 -38 -21 -95
-31 -119 -22 -13 5 -40 11 -60 14 -24 2 -44 13 -61 32 -21 24 -24 37 -21 81
l3 53 -32 0 -32 0 38 -82z"/>
<path d="M774 445 c-6 -19 -7 -32 -2 -29 4 3 8 -2 8 -10 0 -8 -5 -18 -12 -22
-7 -4 -8 -3 -4 4 4 7 3 12 -1 12 -16 0 -53 -31 -64 -53 -10 -20 -9 -20 9 2 10
13 30 25 43 26 13 1 27 3 31 4 5 1 10 101 5 101 -1 0 -7 -16 -13 -35z"/>
<path d="M1028 460 c13 -5 54 -13 90 -16 37 -3 81 -7 97 -10 87 -13 359 -14
465 -2 l115 14 -220 -4 c-191 -4 -396 5 -530 23 -33 5 -36 4 -17 -5z"/>
<path d="M2115 450 c4 -14 16 -37 27 -52 17 -24 22 -26 43 -16 14 6 25 18 25
27 -1 14 -2 13 -11 -1 -12 -21 -39 -24 -39 -5 -1 6 -12 26 -26 42 -25 29 -25
29 -19 5z"/>
</g>
</svg>
