<?xml version="1.0" standalone="no"?>
<!DOCTYPE svg PUBLIC "-//W3C//DTD SVG 20010904//EN"
 "http://www.w3.org/TR/2001/REC-SVG-20010904/DTD/svg10.dtd">
<svg version="1.0" xmlns="http://www.w3.org/2000/svg"
 width="300.000000pt" height="300.000000pt" viewBox="0 0 300.000000 300.000000"
 preserveAspectRatio="xMidYMid meet">
<metadata>
Created by potrace 1.10, written by Peter Selinger 2001-2011
</metadata>
<g transform="translate(0.000000,300.000000) scale(0.100000,-0.100000)"
fill="#000000" stroke="none">
<path d="M1280 2749 c0 -7 24 -10 73 -8 54 3 71 1 70 -8 -2 -9 12 -13 47 -13
54 0 62 6 28 19 -18 7 -12 9 24 8 31 -1 48 -6 48 -14 0 -7 7 -13 16 -13 30 0
119 -48 175 -93 68 -55 111 -113 172 -227 72 -136 74 -140 117 -256 29 -80 39
-120 35 -140 -5 -22 -4 -25 4 -14 9 12 11 11 11 -7 0 -12 4 -24 9 -28 6 -3 9
-13 8 -23 0 -9 5 -40 12 -67 27 -107 30 -122 41 -200 6 -44 16 -109 21 -145
21 -143 41 -582 34 -755 -2 -71 -5 -174 -6 -227 -1 -64 -6 -103 -15 -115 -7
-10 -13 -25 -13 -33 0 -8 5 -4 10 9 13 34 22 20 13 -24 -5 -27 -10 -35 -22
-30 -8 3 -18 1 -22 -5 -14 -23 -128 -32 -365 -27 -132 3 -269 10 -305 16 -36
5 -112 17 -170 25 -58 8 -150 29 -205 46 -55 17 -109 34 -120 37 -11 3 -27 12
-35 19 -8 7 -27 17 -41 23 -23 8 -28 18 -37 83 -6 40 -14 148 -18 238 -4 91
-10 170 -15 175 -10 14 -3 614 10 750 24 262 52 438 77 489 8 16 14 40 14 53
0 24 52 164 89 240 12 23 21 47 21 53 0 5 4 10 8 10 4 0 15 12 24 28 27 44 80
96 121 117 41 21 55 35 37 35 -44 0 -144 -83 -187 -155 -34 -58 -113 -229
-113 -247 -1 -7 -7 -30 -14 -51 -8 -21 -10 -40 -5 -43 5 -3 6 -10 3 -16 -4 -7
-9 -6 -14 2 -11 18 -51 -218 -80 -470 -17 -143 -13 -868 5 -1075 13 -141 19
-181 28 -192 5 -7 6 -13 1 -13 -5 0 15 -16 45 -35 29 -19 59 -35 66 -35 8 0
17 -4 20 -10 3 -5 17 -10 30 -10 12 0 25 -6 28 -14 4 -9 14 -12 26 -9 12 3 27
1 34 -5 6 -6 26 -12 42 -15 17 -3 45 -10 64 -16 19 -6 38 -8 42 -5 4 2 63 -6
131 -18 110 -20 156 -22 429 -23 244 0 309 3 322 14 9 7 23 11 31 8 29 -11 40
24 48 146 14 220 10 684 -7 874 -15 166 -36 318 -49 353 -3 8 -14 62 -25 120
-22 123 -76 325 -94 355 -7 11 -19 40 -26 65 -7 25 -17 50 -21 55 -5 6 -33 59
-64 119 -61 120 -58 116 -144 202 -40 41 -91 78 -148 108 l-86 46 -149 0
c-102 0 -149 -3 -149 -11z"/>
<path d="M1430 2680 c-8 -5 -10 -10 -5 -10 6 0 17 5 25 10 8 5 11 10 5 10 -5
0 -17 -5 -25 -10z"/>
<path d="M1548 2683 c7 -3 16 -2 19 1 4 3 -2 6 -13 5 -11 0 -14 -3 -6 -6z"/>
<path d="M1830 2504 c0 -5 7 -18 15 -28 12 -16 15 -17 15 -4 0 8 -7 21 -15 28
-8 7 -15 9 -15 4z"/>
<path d="M1240 2330 c-21 -7 -21 -8 -5 -9 11 0 27 4 35 9 18 11 5 11 -30 0z"/>
<path d="M1935 2330 c3 -5 8 -10 11 -10 2 0 4 5 4 10 0 6 -5 10 -11 10 -5 0
-7 -4 -4 -10z"/>
<path d="M1458 2323 c6 -2 18 -2 25 0 6 3 1 5 -13 5 -14 0 -19 -2 -12 -5z"/>
<path d="M1170 2300 c0 -5 4 -10 9 -10 6 0 13 5 16 10 3 6 -1 10 -9 10 -9 0
-16 -4 -16 -10z"/>
<path d="M1960 2293 c0 -5 9 -18 20 -28 11 -10 20 -15 20 -11 0 4 -9 16 -20
28 -11 12 -20 17 -20 11z"/>
<path d="M1268 2263 c-10 -2 -18 -8 -18 -12 0 -11 -44 -8 -53 4 -5 6 -6 2 -3
-8 3 -11 -4 -36 -18 -60 -33 -58 -40 -112 -22 -165 34 -96 81 -131 201 -150
182 -29 285 -27 326 9 32 28 21 30 -30 7 -40 -18 -52 -19 -155 -10 -173 16
-242 34 -281 76 -16 18 -45 108 -45 141 0 17 9 49 19 71 23 50 90 89 140 82
17 -2 32 -1 33 4 2 4 18 4 36 -1 17 -5 32 -6 32 -1 0 17 -112 26 -162 13z"/>
<path d="M1440 2242 c0 -6 -10 -13 -22 -15 -13 -3 -3 -5 22 -5 25 0 52 -2 60
-5 8 -3 31 -8 50 -10 19 -3 40 -7 45 -9 6 -1 12 1 15 6 3 5 -8 13 -25 18 -95
26 -145 33 -145 20z"/>
<path d="M1680 2230 c0 -5 7 -7 15 -4 8 4 15 8 15 10 0 2 -7 4 -15 4 -8 0 -15
-4 -15 -10z"/>
<path d="M1143 2213 c-3 -10 -8 -22 -11 -28 -3 -5 4 -1 16 9 24 20 28 36 12
36 -6 0 -13 -8 -17 -17z"/>
<path d="M1251 2195 c-72 -66 -68 -177 10 -231 46 -31 49 -32 135 -41 l60 -5
-4 33 c-4 33 -5 34 -53 36 -36 1 -49 -3 -49 -13 0 -8 -4 -14 -10 -14 -5 0 -10
5 -10 10 0 6 -10 20 -22 32 -19 19 -22 20 -33 5 -20 -28 -31 -20 -48 33 -13
39 -14 56 -5 82 15 46 63 88 99 88 24 0 29 -4 29 -25 0 -21 -5 -25 -27 -25
-36 0 -49 -9 -62 -43 -14 -36 -14 -60 0 -52 6 4 8 13 5 21 -6 16 3 18 24 4 12
-7 10 -12 -9 -30 -26 -22 -22 -41 4 -20 13 11 18 10 30 -6 8 -11 14 -14 15 -6
0 6 9 12 21 12 11 0 17 5 14 10 -3 6 -17 7 -31 4 -21 -5 -24 -3 -24 20 0 27 9
33 26 16 13 -13 46 -2 38 11 -3 6 -14 7 -25 4 -13 -4 -19 -2 -19 9 0 9 -4 16
-10 16 -5 0 -10 -4 -10 -10 0 -5 -7 -10 -15 -10 -8 0 -15 3 -15 6 0 14 36 33
62 34 25 0 27 3 25 38 -2 35 -4 37 -39 40 -30 3 -44 -3 -77 -33z"/>
<path d="M1607 2153 c-4 -3 -7 -28 -7 -53 0 -55 16 -74 57 -68 27 4 28 2 25
-37 -3 -37 -6 -40 -34 -40 -43 0 -46 -21 -5 -29 56 -11 67 -1 67 60 0 45 -3
55 -22 65 -13 7 -24 12 -25 11 -2 -1 -10 -2 -18 -2 -11 0 -15 11 -15 36 0 33
2 36 24 32 18 -4 26 0 29 14 4 15 -1 18 -32 18 -21 0 -41 -3 -44 -7z"/>
<path d="M1099 2146 c0 -1 -2 -11 -5 -23 -3 -16 1 -23 12 -23 8 0 12 5 9 10
-4 6 -2 17 4 24 8 9 7 13 -4 13 -8 0 -15 -1 -16 -1z"/>
<path d="M1731 2084 c0 -11 3 -14 6 -6 3 7 2 16 -1 19 -3 4 -6 -2 -5 -13z"/>
<path d="M1082 2050 c0 -14 2 -19 5 -12 2 6 2 18 0 25 -3 6 -5 1 -5 -13z"/>
<path d="M1801 2054 c0 -11 3 -14 6 -6 3 7 2 16 -1 19 -3 4 -6 -2 -5 -13z"/>
<path d="M1380 2051 c0 -16 74 -21 90 -6 13 13 8 15 -38 15 -29 0 -52 -4 -52
-9z"/>
<path d="M1801 2007 c-1 -33 -27 -97 -38 -97 -4 0 -14 -14 -22 -31 -7 -16 -15
-28 -18 -25 -3 3 -15 -6 -28 -20 -12 -13 -27 -24 -32 -24 -19 0 -63 -25 -63
-36 0 -15 96 34 121 61 80 86 97 120 86 176 -4 22 -4 22 -6 -4z"/>
<path d="M1130 1981 c0 -5 5 -13 10 -16 6 -3 10 -2 10 4 0 5 -4 13 -10 16 -5
3 -10 2 -10 -4z"/>
<path d="M1150 1940 c0 -5 5 -10 11 -10 5 0 7 5 4 10 -3 6 -8 10 -11 10 -2 0
-4 -4 -4 -10z"/>
<path d="M1120 1870 c0 -5 5 -10 11 -10 5 0 7 5 4 10 -3 6 -8 10 -11 10 -2 0
-4 -4 -4 -10z"/>
<path d="M1162 1838 c8 -12 21 -24 29 -26 9 -2 8 2 -3 11 -10 8 -18 19 -18 26
0 6 -5 11 -11 11 -7 0 -6 -8 3 -22z"/>
<path d="M1215 1800 c-3 -5 -1 -10 4 -10 6 0 11 5 11 10 0 6 -2 10 -4 10 -3 0
-8 -4 -11 -10z"/>
<path d="M1557 1773 c-13 -13 -7 -21 13 -16 11 3 17 9 14 14 -6 11 -18 12 -27
2z"/>
<path d="M1500 1759 c0 -8 -25 -10 -80 -7 -44 3 -80 1 -80 -4 0 -4 38 -8 85
-8 69 0 85 3 85 15 0 8 -2 15 -5 15 -3 0 -5 -5 -5 -11z"/>
<path d="M2161 1524 c0 -11 3 -14 6 -6 3 7 2 16 -1 19 -3 4 -6 -2 -5 -13z"/>
<path d="M2161 1453 c-1 -6 -4 -20 -7 -30 -5 -17 -5 -17 6 0 6 10 9 23 6 30
-3 9 -5 9 -5 0z"/>
<path d="M1145 1050 c-3 -5 -1 -10 4 -10 6 0 11 5 11 10 0 6 -2 10 -4 10 -3 0
-8 -4 -11 -10z"/>
<path d="M1085 999 c5 -14 2 -25 -6 -30 -10 -6 -10 -9 -2 -9 9 0 11 -11 7 -32
-4 -25 -3 -29 5 -18 11 16 13 15 29 -15 8 -14 11 -16 12 -5 0 9 -7 26 -16 38
-8 12 -13 31 -9 41 6 21 -3 51 -17 51 -5 0 -6 -10 -3 -21z"/>
<path d="M1120 998 c0 -19 2 -20 10 -8 13 19 13 30 0 30 -5 0 -10 -10 -10 -22z"/>
<path d="M1155 986 c-9 -20 11 -39 33 -31 8 3 12 -5 12 -22 0 -21 -3 -24 -12
-15 -19 19 -38 14 -38 -8 0 -16 4 -19 18 -12 9 5 23 7 30 5 7 -3 12 4 12 16 0
11 5 23 10 26 16 10 24 -23 10 -40 -10 -12 -9 -15 6 -15 14 0 20 8 21 30 2 28
-1 31 -42 42 -24 7 -46 19 -48 27 -3 13 -5 13 -12 -3z"/>
<path d="M1120 956 c0 -9 5 -16 10 -16 6 0 10 4 10 9 0 6 -4 13 -10 16 -5 3
-10 -1 -10 -9z"/>
<path d="M1010 920 c0 -6 7 -13 15 -17 24 -9 27 1 5 15 -13 8 -20 8 -20 2z"/>
<path d="M1276 914 c-15 -39 4 -42 24 -3 8 15 7 19 -4 19 -7 0 -17 -7 -20 -16z"/>
<path d="M1337 913 c-13 -12 -7 -41 9 -47 23 -9 24 -8 24 13 0 21 -23 45 -33
34z"/>
<path d="M1402 883 c5 -26 38 -29 38 -4 0 15 -6 21 -21 21 -14 0 -19 -5 -17
-17z"/>
<path d="M1470 890 c0 -5 4 -10 10 -10 5 0 7 -7 4 -15 -4 -8 -2 -15 4 -15 12
0 24 29 16 41 -7 12 -34 11 -34 -1z"/>
<path d="M1557 894 c-10 -10 12 -44 28 -44 8 0 15 5 15 10 0 6 -7 10 -15 10
-9 0 -12 6 -9 15 6 15 -7 21 -19 9z"/>
<path d="M1627 881 c-6 -25 0 -31 30 -31 16 0 23 6 23 19 0 11 -4 23 -10 26
-5 3 -10 -1 -10 -9 0 -9 -5 -16 -11 -16 -6 0 -9 7 -5 15 3 8 2 15 -3 15 -5 0
-11 -9 -14 -19z"/>
<path d="M1720 891 c0 -5 -3 -17 -7 -26 -5 -15 -3 -16 15 -6 25 13 29 41 7 41
-8 0 -15 -4 -15 -9z"/>
<path d="M1100 871 c0 -5 7 -12 16 -15 14 -5 15 -4 4 9 -14 17 -20 19 -20 6z"/>
<path d="M2130 850 c20 -13 40 -13 40 0 0 6 -12 10 -27 10 -22 0 -25 -2 -13
-10z"/>
<path d="M1165 836 c10 -7 28 -11 39 -8 20 6 20 6 -4 13 -43 12 -56 10 -35 -5z"/>
<path d="M2005 829 c-16 -5 -67 -14 -112 -20 -46 -7 -83 -16 -83 -21 0 -5 8
-7 18 -4 9 3 40 7 68 10 28 3 57 8 65 11 8 3 28 7 44 10 17 2 46 8 65 14 l35
9 -35 0 c-19 0 -48 -4 -65 -9z"/>
<path d="M1240 820 c0 -5 10 -11 23 -12 12 -1 29 -2 37 -3 8 0 20 -3 25 -7 24
-14 236 -24 385 -17 52 2 -171 15 -318 18 -18 0 -53 7 -78 16 -52 17 -74 19
-74 5z"/>
<path d="M1183 644 c9 -11 17 -30 17 -42 0 -49 63 -69 68 -22 3 34 -10 50 -41
54 -14 1 -34 9 -44 17 -17 13 -17 13 0 -7z m70 -49 c7 -16 -8 -29 -23 -20 -15
9 -12 35 4 35 8 0 16 -7 19 -15z"/>
<path d="M1558 633 c7 -3 16 -2 19 1 4 3 -2 6 -13 5 -11 0 -14 -3 -6 -6z"/>
<path d="M1540 606 c0 -2 7 -7 16 -10 8 -3 12 -2 9 4 -6 10 -25 14 -25 6z"/>
<path d="M1280 569 c0 -16 5 -29 11 -29 5 0 9 10 7 22 -2 11 2 23 9 25 7 2 13
-8 15 -24 2 -20 9 -29 26 -31 12 -2 22 1 22 7 0 6 -7 11 -15 11 -8 0 -15 8
-14 18 0 10 3 12 6 5 2 -7 10 -13 16 -13 7 0 18 -9 25 -20 14 -22 38 -26 45
-7 4 8 8 9 14 1 14 -19 43 -25 43 -9 0 8 -3 14 -7 14 -20 -3 -34 2 -28 11 11
18 31 11 45 -15 16 -30 30 -32 30 -4 0 23 24 21 26 -2 2 -30 6 -33 13 -9 4 16
2 31 -8 42 -19 22 -41 23 -41 2 0 -13 -5 -12 -27 6 l-28 21 -17 -21 c-10 -12
-18 -18 -18 -14 0 5 -5 2 -10 -6 -7 -12 -12 -12 -22 -2 -10 10 -8 14 10 18 12
4 22 10 22 15 0 14 -38 11 -44 -3 -3 -10 -8 -9 -15 3 -7 11 -25 17 -51 17 -38
1 -40 -1 -40 -29z"/>
<path d="M1200 520 c0 -11 5 -20 10 -20 6 0 10 9 10 20 0 11 -4 20 -10 20 -5
0 -10 -9 -10 -20z"/>
<path d="M1240 510 c0 -11 5 -20 10 -20 6 0 10 9 10 20 0 11 -4 20 -10 20 -5
0 -10 -9 -10 -20z"/>
<path d="M1282 500 c0 -14 2 -19 5 -12 2 6 2 18 0 25 -3 6 -5 1 -5 -13z"/>
<path d="M1310 501 c0 -12 5 -21 10 -21 6 0 10 6 10 14 0 8 -4 18 -10 21 -5 3
-10 -3 -10 -14z"/>
<path d="M1350 495 c0 -8 7 -15 15 -15 9 0 12 6 9 15 -4 8 -10 15 -15 15 -5 0
-9 -7 -9 -15z"/>
<path d="M1390 485 c0 -9 6 -12 15 -9 8 4 12 10 9 15 -8 14 -24 10 -24 -6z"/>
<path d="M1437 485 c-4 -8 -2 -17 3 -20 6 -4 10 3 10 14 0 25 -6 27 -13 6z"/>
<path d="M1465 480 c3 -5 13 -10 21 -10 8 0 14 5 14 10 0 6 -9 10 -21 10 -11
0 -17 -4 -14 -10z"/>
<path d="M1510 470 c0 -5 5 -10 10 -10 6 0 10 5 10 10 0 6 -4 10 -10 10 -5 0
-10 -4 -10 -10z"/>
<path d="M1547 459 c4 -16 8 -17 14 -7 13 19 11 28 -5 28 -9 0 -12 -7 -9 -21z"/>
<path d="M2151 374 c0 -11 3 -14 6 -6 3 7 2 16 -1 19 -3 4 -6 -2 -5 -13z"/>
</g>
</svg>
