<?xml version="1.0" standalone="no"?>
<!DOCTYPE svg PUBLIC "-//W3C//DTD SVG 20010904//EN"
 "http://www.w3.org/TR/2001/REC-SVG-20010904/DTD/svg10.dtd">
<svg version="1.0" xmlns="http://www.w3.org/2000/svg"
 width="300.000000pt" height="300.000000pt" viewBox="0 0 300.000000 300.000000"
 preserveAspectRatio="xMidYMid meet">
<metadata>
Created by potrace 1.10, written by Peter Selinger 2001-2011
</metadata>
<g transform="translate(0.000000,300.000000) scale(0.100000,-0.100000)"
fill="#000000" stroke="none">
<path d="M1016 2750 c-91 -6 -101 -9 -123 -34 l-23 -27 -2 -1042 c-1 -573 -2
-1100 -2 -1172 -1 -72 2 -139 6 -150 4 -11 7 258 7 598 1 539 3 618 16 623 11
5 15 21 15 61 0 32 -4 52 -10 48 -5 -3 -7 -24 -4 -45 4 -25 2 -40 -5 -40 -7 0
-11 168 -11 550 0 625 -3 603 72 613 118 14 778 17 963 4 134 -10 173 -21 186
-54 11 -30 9 -887 -3 -905 -4 -7 -8 -8 -8 -3 -1 6 -3 84 -6 175 -3 91 -8 167
-11 170 -3 3 -3 -91 0 -209 4 -165 8 -215 18 -222 11 -7 11 -9 1 -9 -10 0 -12
-22 -8 -102 2 -57 0 -166 -4 -243 -15 -242 -17 -296 -9 -288 4 4 10 62 13 128
3 66 6 134 7 150 l1 30 8 -33 c8 -32 8 -94 10 -727 1 -261 -1 -301 -15 -311
-23 -17 -1178 -12 -1199 5 -12 10 -14 9 -12 -6 3 -17 33 -18 592 -21 324 -1
603 0 621 3 l32 6 1 1195 c0 1306 3 1238 -57 1262 -15 6 -91 16 -168 22 -152
11 -729 11 -889 0z m1081 -1022 c-3 -8 -6 -5 -6 6 -1 11 2 17 5 13 3 -3 4 -12
1 -19z"/>
<path d="M2051 2464 c0 -11 3 -14 6 -6 3 7 2 16 -1 19 -3 4 -6 -2 -5 -13z"/>
<path d="M1136 2302 c9 -36 11 -37 16 -8 3 16 0 27 -9 30 -10 4 -12 -1 -7 -22z"/>
<path d="M1550 2319 c-13 -8 -12 -11 3 -23 18 -14 18 -14 0 -19 -15 -4 -16 -5
-1 -6 23 -1 33 18 13 25 -13 5 -14 9 -4 15 8 4 11 10 8 13 -2 3 -11 1 -19 -5z"/>
<path d="M1180 2295 c0 -14 5 -25 11 -25 5 0 8 4 4 9 -3 5 -1 12 5 16 5 3 10
-2 11 -12 0 -11 3 -13 6 -5 5 14 -14 42 -28 42 -5 0 -9 -11 -9 -25z"/>
<path d="M1245 2301 c-8 -15 3 -31 21 -31 9 0 14 7 12 17 -4 20 -24 28 -33 14z"/>
<path d="M1307 2290 c-3 -11 -2 -20 3 -20 4 0 10 9 13 20 3 11 2 20 -3 20 -4
0 -10 -9 -13 -20z"/>
<path d="M1351 2288 c0 -22 1 -22 9 -3 9 20 9 20 10 0 1 -20 1 -20 9 0 8 20 8
20 14 0 6 -20 6 -20 4 0 -1 12 -11 21 -25 23 -17 3 -22 -1 -21 -20z"/>
<path d="M1424 2299 c-9 -15 11 -33 30 -26 9 4 13 13 10 22 -7 17 -30 20 -40
4z m26 -9 c0 -5 -5 -10 -11 -10 -5 0 -7 5 -4 10 3 6 8 10 11 10 2 0 4 -4 4
-10z"/>
<path d="M1605 2301 c-8 -15 3 -31 21 -31 9 0 14 7 12 17 -4 20 -24 28 -33 14z"/>
<path d="M1667 2304 c-11 -11 -8 -34 4 -34 5 0 8 4 4 9 -3 5 -1 12 4 15 5 4
12 -1 14 -9 4 -12 5 -12 3 1 -1 19 -18 29 -29 18z"/>
<path d="M1725 2300 c-3 -5 0 -10 7 -10 9 0 9 -3 -2 -10 -13 -8 -13 -10 2 -10
11 0 16 7 15 20 -1 21 -12 26 -22 10z"/>
<path d="M1787 2304 c-14 -14 -7 -35 11 -32 9 2 17 10 17 17 0 16 -18 25 -28
15z m18 -14 c3 -5 1 -10 -4 -10 -6 0 -11 5 -11 10 0 6 2 10 4 10 3 0 8 -4 11
-10z"/>
<path d="M1840 2288 c0 -19 2 -20 10 -8 13 19 13 30 0 30 -5 0 -10 -10 -10
-22z"/>
<path d="M2062 2275 c0 -16 2 -22 5 -12 2 9 2 23 0 30 -3 6 -5 -1 -5 -18z"/>
<path d="M2063 2165 c5 -37 17 -42 17 -7 0 18 -5 32 -10 32 -6 0 -9 -11 -7
-25z"/>
<path d="M1461 2046 c-7 -8 -14 -31 -17 -53 l-5 -38 18 45 c26 62 48 64 74 4
16 -36 20 -59 16 -98 -4 -41 -3 -46 5 -26 12 32 4 110 -17 149 -17 34 -54 42
-74 17z"/>
<path d="M921 1964 c0 -11 3 -14 6 -6 3 7 2 16 -1 19 -3 4 -6 -2 -5 -13z"/>
<path d="M1460 1960 c-8 -14 -8 -26 0 -40 14 -26 56 -26 70 -1 13 25 13 27 -6
45 -21 22 -51 20 -64 -4z m50 -26 c0 -14 -21 -19 -33 -7 -9 9 13 34 24 27 5
-3 9 -12 9 -20z"/>
<path d="M903 1728 c0 -31 2 -38 8 -23 11 27 11 65 0 65 -4 0 -8 -19 -8 -42z"/>
<path d="M897 1533 c-9 -9 -9 -43 1 -43 4 0 8 11 8 25 2 27 1 29 -9 18z"/>
<path d="M890 1461 c0 -6 5 -13 10 -16 6 -3 10 1 10 9 0 9 -4 16 -10 16 -5 0
-10 -4 -10 -9z"/>
<path d="M908 1303 c5 -21 7 -23 10 -9 2 10 0 22 -6 28 -6 6 -7 0 -4 -19z"/>
<path d="M1282 1054 c-12 -8 -22 -21 -22 -29 0 -9 9 -5 26 12 29 29 27 39 -4
17z"/>
<path d="M1320 1040 c0 -5 5 -10 10 -10 16 0 12 -47 -5 -54 -8 -3 -21 1 -29 9
-21 21 -29 18 -16 -5 12 -22 49 -27 68 -8 22 22 8 78 -20 78 -4 0 -8 -4 -8
-10z"/>
<path d="M1286 1031 c-4 -5 -2 -12 3 -15 5 -4 12 -2 15 3 4 5 2 12 -3 15 -5 4
-12 2 -15 -3z"/>
<path d="M1380 1011 c-13 -25 -13 -51 0 -51 6 0 10 11 10 25 0 13 8 29 18 34
16 10 16 10 0 11 -10 0 -22 -9 -28 -19z"/>
<path d="M1434 1016 c-11 -29 1 -51 29 -54 15 -2 27 2 27 8 0 7 -8 9 -19 5
-11 -3 -22 -1 -26 5 -4 6 4 10 20 10 20 0 26 4 23 18 -4 22 -46 29 -54 8z m41
-6 c3 -5 -3 -10 -15 -10 -12 0 -18 5 -15 10 3 6 10 10 15 10 5 0 12 -4 15 -10z"/>
<path d="M1511 1011 c-13 -24 8 -55 35 -49 25 4 32 38 7 38 -14 0 -15 -2 -4
-9 10 -6 10 -10 1 -16 -16 -10 -34 10 -26 30 4 11 12 14 27 10 15 -5 19 -4 15
4 -11 17 -44 13 -55 -8z"/>
<path d="M1590 1015 c-18 -22 -1 -50 31 -50 20 0 24 5 24 30 0 23 -5 31 -21
33 -11 2 -27 -4 -34 -13z m47 -11 c8 -21 -13 -42 -28 -27 -13 13 -5 43 11 43
6 0 13 -7 17 -16z"/>
<path d="M1677 1023 c-11 -20 -17 -63 -8 -63 5 0 11 12 13 28 2 16 9 27 18 27
10 0 15 -10 15 -27 -1 -16 3 -28 8 -28 4 0 7 15 5 33 -2 24 -8 33 -25 35 -11
2 -23 0 -26 -5z"/>
<path d="M2061 983 c1 -53 6 -49 11 10 2 20 0 37 -4 37 -4 0 -8 -21 -7 -47z"/>
<path d="M1270 915 c0 -8 5 -15 10 -15 6 0 10 7 10 15 0 8 -4 15 -10 15 -5 0
-10 -7 -10 -15z"/>
<path d="M1320 915 c0 -8 8 -15 18 -15 13 0 14 2 3 9 -11 7 -11 9 0 14 10 4 9
6 -3 6 -10 1 -18 -6 -18 -14z"/>
<path d="M1371 914 c0 -11 3 -14 6 -6 3 7 2 16 -1 19 -3 4 -6 -2 -5 -13z"/>
<path d="M1410 915 c0 -8 7 -15 15 -15 9 0 12 6 9 15 -4 8 -10 15 -15 15 -5 0
-9 -7 -9 -15z"/>
<path d="M1470 915 c0 -8 4 -15 9 -15 5 0 11 7 15 15 3 9 0 15 -9 15 -8 0 -15
-7 -15 -15z"/>
<path d="M1526 915 c4 -8 7 -15 9 -15 2 0 5 7 9 15 3 9 0 15 -9 15 -9 0 -12
-6 -9 -15z"/>
<path d="M1576 915 c-3 -8 -1 -15 4 -15 6 0 10 7 10 15 0 8 -2 15 -4 15 -2 0
-6 -7 -10 -15z"/>
<path d="M1620 914 c0 -8 5 -12 10 -9 6 3 10 10 10 16 0 5 -4 9 -10 9 -5 0
-10 -7 -10 -16z"/>
<path d="M1666 915 c-3 -8 -1 -15 4 -15 6 0 10 7 10 15 0 8 -2 15 -4 15 -2 0
-6 -7 -10 -15z"/>
<path d="M1710 915 c0 -8 4 -15 8 -15 5 0 9 7 9 15 0 8 -4 15 -9 15 -4 0 -8
-7 -8 -15z"/>
<path d="M2061 914 c0 -11 3 -14 6 -6 3 7 2 16 -1 19 -3 4 -6 -2 -5 -13z"/>
<path d="M2051 833 c1 -53 6 -49 11 10 2 20 0 37 -4 37 -4 0 -8 -21 -7 -47z"/>
<path d="M2052 750 c0 -14 2 -19 5 -12 2 6 2 18 0 25 -3 6 -5 1 -5 -13z"/>
<path d="M1477 753 c-4 -3 -7 -95 -7 -203 0 -166 2 -200 15 -210 11 -9 19 -10
26 -3 8 8 6 11 -7 10 -16 -2 -18 5 -17 38 2 56 2 55 14 52 8 -1 11 22 11 71
-1 158 -1 162 -17 162 -10 0 -15 11 -15 35 0 44 30 51 31 8 0 -25 1 -25 8 -8
14 34 -19 72 -42 48z"/>
<path d="M2042 685 c0 -16 2 -22 5 -12 2 9 2 23 0 30 -3 6 -5 -1 -5 -18z"/>
<path d="M1387 623 c-4 -3 -7 -68 -7 -144 0 -119 2 -138 17 -143 27 -11 34 7
30 80 l-3 69 -2 -73 c-1 -54 -5 -73 -14 -70 -19 6 -24 149 -6 146 7 -2 13 4
13 12 0 8 -6 14 -12 13 -23 -5 -16 70 7 85 12 7 18 17 15 22 -7 11 -29 13 -38
3z"/>
<path d="M1566 615 c-3 -9 -6 -72 -6 -140 0 -98 3 -125 16 -135 12 -11 18 -10
32 5 16 18 16 18 -1 6 -9 -8 -19 -12 -21 -10 -2 2 -6 37 -9 76 -5 52 -3 72 5
70 7 -1 14 7 16 17 3 14 0 17 -12 13 -13 -5 -16 1 -16 32 0 31 4 40 21 44 12
3 19 12 17 19 -7 19 -35 21 -42 3z"/>
<path d="M1422 550 c0 -19 2 -27 5 -17 2 9 2 25 0 35 -3 9 -5 1 -5 -18z"/>
<path d="M1600 556 c0 -14 5 -28 10 -31 6 -4 10 7 10 24 0 17 -4 31 -10 31 -5
0 -10 -11 -10 -24z"/>
<path d="M2041 544 c0 -11 3 -14 6 -6 3 7 2 16 -1 19 -3 4 -6 -2 -5 -13z"/>
<path d="M1607 473 c-11 -10 -8 -43 3 -43 6 0 10 11 10 25 0 26 -2 29 -13 18z"/>
<path d="M1512 395 c0 -16 2 -22 5 -12 2 9 2 23 0 30 -3 6 -5 -1 -5 -18z"/>
<path d="M1600 410 c0 -5 5 -10 10 -10 6 0 10 5 10 10 0 6 -4 10 -10 10 -5 0
-10 -4 -10 -10z"/>
<path d="M1600 380 c0 -5 5 -10 10 -10 6 0 10 5 10 10 0 6 -4 10 -10 10 -5 0
-10 -4 -10 -10z"/>
</g>
</svg>
